<?xml version="1.0" encoding="utf-8"?>
<!-- Generator: Adobe Illustrator 20.0.0, SVG Export Plug-In . SVG Version: 6.00 Build 0)  -->

<svg width="138" height="36" fill="none" xmlns="http://www.w3.org/2000/svg"><path d="m35.98 18.97-.81.52a17.7 17.7 0 0 0-.63-8.9l-.5.86c0-.04-.03-.08-.04-.11a11.53 11.53 0 0 0-3.88-7.15v.76c-.66-.56-3.21-2.62-5.81-3.67a11.5 11.5 0 0 0-2.87-.85 35.9 35.9 0 0 1 4.91 3.92c.29.33.26-.12.26-.14 0-.13-.12-.57.08-.62a.21.21 0 0 1 .16.04l.18.13-.16-.12c.66.5 1.28 1.06 1.82 1.69a21.08 21.08 0 0 1 1.26 1.57 15.01 15.01 0 0 1 2.6 12.62c-.89 3.66-2.95 7.29-6.1 9.43a16.85 16.85 0 0 1-8.6 3.01h-.5a10.2 10.2 0 0 1-3.38-.6c-1.31-.48-2.27-2.03-1.36-3.32 1.27-1.8 4.65-1.03 6.5-1.33 2.03-.33 3.81-1.23 4.91-2.84l.12-.13c1.26-1.7 1.36-4.78 1.36-4.78-2.5-.6-4.5-2.52-5.98-4.54a2.87 2.87 0 0 1-.66-1.84c.47.65 1.06 1.2 1.74 1.63.92.63 2.06.06 2.06.06.2-.08.4-.12.6-.12.48-.01.95.12 1.35.4.32.24.57.57.7.94.07.19.13.38.17.57l.05-.03c.8-.5 2.15-2.35 2.15-2.35l-.5-.2c.22-.65.35-1.34.38-2.03l-1.24-.34-1.79-.5c-.15-.04-.3-.1-.44-.17-.32-.2-.49-.57-.8-.8-.3-.24-.75-.29-1.13-.4l-1.26-.38c-1-.31-1.97-.7-2.9-1.14a4.62 4.62 0 0 1-1.42-.87c-.44 1.38 1.07 2.5 1.24 2.62l.1.07a.16.16 0 0 1 .02.25l-.15.15a3.97 3.97 0 0 0-1.26 3.29c.16 2 .66 2.25 1 3.4l.08.29v.16c0 2.35-2.8 2.6-4.17 1.26-1.17-1.2-1.78-3.07-2.04-4.69-.34-2.24-.17-4.53.5-6.7C13.46 1.68 18.83.1 18.92.06a17.6 17.6 0 0 0-18 11.82A15.62 15.62 0 0 0 0 17.32l.01.23A17.45 17.45 0 0 0 3.3 27.8a7.76 7.76 0 0 1 7.63-5.67 8.25 8.25 0 0 1 1.9.22 6.03 6.03 0 0 0-5.27 5.95v.04c0 .48.06.95.17 1.42v.01c0 .02 0 0 0 0 1.28 5.89 9.83 6.14 9.83 6.14 1.03.09 2.06.1 3.09.05l-.86-.64a22.94 22.94 0 0 0 8.77-2.46l-1.3-.3c.64-.42 1.25-.87 1.83-1.37 1.84-1.37 3.46-3 4.8-4.86l-.97.24.16-.28a16.63 16.63 0 0 0 2.9-7.33Zm-23.12 3.4h-.02.02ZM58.08 22.8h-4.94v-9.64a2.12 2.12 0 0 1 .75-1.68v-.19H49v.2a2.22 2.22 0 0 1 .72 1.67v9.76A2.2 2.2 0 0 1 49 24.6v.2h9.07c.2 0 .86-.02 1.1.13h.18l.85-3.07-.23-.06a2.22 2.22 0 0 1-1.9 1ZM72.18 11.3h-9.73v.18a2.22 2.22 0 0 1 .72 1.68v9.76a2.2 2.2 0 0 1-.72 1.69v.2h9.29s.85-.03 1.1.13h.18l.85-3.07-.24-.06a2.22 2.22 0 0 1-1.89.98h-5.15v-3.95h4.1a.77.77 0 0 1 .6.27h.08v-2.47h-.08a.76.76 0 0 1-.6.28h-4.1V13.3h5.59c1.21 0 1.49.8 1.53.96h.15v-3.14h-.15c-.23.2-1.53.17-1.53.17ZM91.09 11.3h-3.9v.18c.37.35.37 1.1-.02 2.03l-2.95 7.33-3.07-7.27c-.49-1.14-.25-1.74.09-2.08v-.2h-5.55v.2c.78.27 1.27 1.04 1.72 1.95l5.12 11.37h2.72v-.2c-.1-.15-.2-.69.49-2.3l3.72-8.8c.43-1.04 1.02-1.8 1.63-2.02v-.2ZM98.5 11c-4.56.04-7.8 3.2-7.73 7.07.07 3.86 3.03 7 8.55 6.93 4.56-.04 7.68-3.2 7.62-7.09-.06-3.87-2.91-6.98-8.44-6.9Zm1.42 12.15c-2.9.4-4.76-1.75-5.23-4.59-.43-2.47.13-5.29 3.1-5.71 2.9-.39 4.77 1.77 5.24 4.62.42 2.45-.13 5.27-3.1 5.68ZM136.36 22.64l-5.1-11.35h-3.1v.2c.22.13.52.8-.14 2.37l-3.68 8.72c-.39.87-.84 1.64-1.35 1.94-.88-.28-2.04-1.14-3.9-3.65-.93-1.3-1.75-2.41-2.41-2.81a3.7 3.7 0 0 0 2.82-1.69c.29-.44.45-.95.46-1.47 0-2.5-2-3.6-5.63-3.6h-5.77v.18a2.23 2.23 0 0 1 .73 1.68v9.76a2.19 2.19 0 0 1-.73 1.68v.2h4.92v-.2a2.13 2.13 0 0 1-.75-1.68V13.2c2.17-.1 3.64.7 3.64 2.26 0 1.36-.9 2.18-1.95 2.5-.37.07-.75.1-1.12.09l.88 1.1c.44.56.98 1.47 1.9 2.91 1.5 2.41 2.37 2.74 4.25 2.74h6.25v-.2c-.34-.34-.34-1.1.02-2.02l.68-1.66h4.68l.68 1.59c.47 1.13.26 1.75-.1 2.1v.2H138v-.2c-.62-.21-1.25-1.1-1.64-1.97Zm-8.32-3.63 1.54-3.76 1.57 3.76h-3.1Z" fill="#fff"/></svg>